<svg xmlns="http://www.w3.org/2000/svg" xmlns:xlink="http://www.w3.org/1999/xlink" viewBox="0 0 32 70" version="1.1" x="0px" y="0px"><title>3D GUI - Solid - 008 - Cylinder Wire</title><desc>Created with Sketch.</desc><g stroke="none" stroke-width="1" fill="none" fill-rule="evenodd"><g fill-rule="nonzero" fill="#000000"><path d="M32,43 C32,43.77466 30.30133,44.92029 27,45.78754 L27,37.83972 C28.7616969,37.4673329 30.4506474,36.8093819 32,35.89191 L32,43 Z M25,9.25031 L25,16.23224 C22.359551,16.7098413 19.6831968,16.9615056 17,16.9845 L17,9.9856 C19.6818129,9.95048633 22.3567172,9.70463253 25,9.25031 L25,9.25031 Z M15,26.9845 C12.3168032,26.9615056 9.64044899,26.7098413 7,26.23224 L7,18.25031 C9.64328285,18.7046325 12.3181871,18.9504863 15,18.9856 L15,26.9845 Z M15,28.9856 L15,36.9845 C12.3168032,36.9615056 9.64044899,36.7098413 7,36.23224 L7,28.25031 C9.64328285,28.7046325 12.3181871,28.9504863 15,28.9856 L15,28.9856 Z M17,28.9856 C19.6818129,28.9504863 22.3567172,28.7046325 25,28.25031 L25,36.23224 C22.359551,36.7098413 19.6831968,36.9615056 17,36.9845 L17,28.9856 Z M17,26.9845 L17,18.9856 C19.6818129,18.9504863 22.3567172,18.7046325 25,18.25031 L25,26.23224 C22.359551,26.7098413 19.6831968,26.9615056 17,26.9845 L17,26.9845 Z M15,16.9845 C12.3168032,16.9615056 9.64044899,16.7098413 7,16.23224 L7,9.25031 C9.64328285,9.70463253 12.3181871,9.95048633 15,9.9856 L15,16.9845 Z M5,15.7875 C1.69867,14.92029 0,13.77466 0,13 L0,6.89191 C1.5493526,7.80938194 3.23830308,8.46733286 5,8.83972 L5,15.7875 Z M5,17.83969 L5,25.7875 C1.69867,24.92029 0,23.77466 0,23 L0,15.89191 C1.5493526,16.8093819 3.23830308,17.4673329 5,17.83972 L5,17.83969 Z M5,27.83969 L5,35.7875 C1.69867,34.92029 0,33.77466 0,33 L0,25.89191 C1.5493526,26.8093819 3.23830308,27.4673329 5,27.83972 L5,27.83969 Z M0,35.89188 C1.5493526,36.8093519 3.23830308,37.4673029 5,37.83969 L5,45.7875 C1.69867,44.92029 0,43.77466 0,43 L0,35.89188 Z M7,38.25028 C9.64328285,38.7046025 12.3181871,38.9504563 15,38.98557 L15,46.98447 C12.3168032,46.9614756 9.64044899,46.7098113 7,46.23221 L7,38.25028 Z M15,48.9856 L15,55.98743 C12.3168032,55.9644356 9.64044899,55.7127713 7,55.23517 L7,48.25031 C9.64328285,48.7046325 12.3181871,48.9504863 15,48.9856 L15,48.9856 Z M17,48.9856 C19.6818129,48.9504863 22.3567172,48.7046325 25,48.25031 L25,55.23517 C22.359551,55.7127713 19.6831968,55.9644356 17,55.98743 L17,48.9856 Z M17,46.9845 L17,38.9856 C19.6818129,38.9504863 22.3567172,38.7046325 25,38.25031 L25,46.23224 C22.359551,46.7098413 19.6831968,46.9615056 17,46.9845 L17,46.9845 Z M32,33 C32,33.77466 30.30133,34.92029 27,35.78754 L27,27.83972 C28.7616969,27.4673329 30.4506474,26.8093819 32,25.89191 L32,33 Z M32,23 C32,23.77466 30.30133,24.92029 27,25.78754 L27,17.83972 C28.7616969,17.4673329 30.4506474,16.8093819 32,15.89191 L32,23 Z M32,13 C32,13.77466 30.30133,14.92029 27,15.78754 L27,8.83972 C28.7616969,8.46733286 30.4506474,7.80938194 32,6.89191 L32,13 Z M16,0 C26.50488,0 32,2.604 32,4 C32,5.396 26.50488,8 16,8 C5.49512,8 0,5.396 0,4 C0,2.604 5.49512,0 16,0 Z M0,52.00293 L0,45.89193 C1.5493526,46.8094019 3.23830308,47.4673529 5,47.83974 L5,54.79048 C1.69867,53.92322 0,52.77759 0,52.00293 Z M27,54.79047 L27,47.83972 C28.7616969,47.4673329 30.4506474,46.8093819 32,45.89191 L32,52.00291 C32,52.77759 30.30133,53.92322 27,54.79047 Z"/></g></g><text x="0" y="71" fill="#000000" font-size="5px" font-weight="bold" font-family="'Helvetica Neue', Helvetica, Arial-Unicode, Arial, Sans-serif">Created by Creaticca Creative Agency</text><text x="0" y="76" fill="#000000" font-size="5px" font-weight="bold" font-family="'Helvetica Neue', Helvetica, Arial-Unicode, Arial, Sans-serif">from the Noun Project</text></svg>