<?xml version="1.0" encoding="utf-8"?>
<!-- Generator: Adobe Illustrator 25.0.1, SVG Export Plug-In . SVG Version: 6.00 Build 0)  -->
<svg version="1.1" id="Layer_1" xmlns="http://www.w3.org/2000/svg" xmlns:xlink="http://www.w3.org/1999/xlink" x="0px" y="0px"
	 viewBox="0 0 100 100" style="enable-background:new 0 0 100 100;" xml:space="preserve">
<g>
	<path d="M72.6,80.1c-4.4,0-12.4-0.1-20.6-0.5c-23-1.1-28.5-3.7-30.9-6c-1.5-1.5-1.8-3.1-1.8-4.2c0-7.6,12.1-8.5,30.5-9.8
		c6.2-0.5,14.8-1.1,19.8-2.1c-5-1.4-13.8-2.7-20.1-3.6C29,51,19.2,49.3,19.2,42.2c0-7.6,12.1-8.5,30.5-9.8c5.7-0.4,13.5-1,18.6-1.9
		C59.2,28.8,40.4,27.9,24,28L24,20c0.1,0,11.9-0.1,24.2,0.5c23.1,1.2,28.6,3.7,30.9,6c1.5,1.4,1.8,3,1.8,4c0,7.6-12.1,8.5-30.5,9.8
		c-6.2,0.5-14.8,1.1-19.8,2.1c5,1.4,13.8,2.7,20.1,3.6c20.4,3,30.2,4.7,30.2,11.7c0,7.6-12.1,8.5-30.5,9.8c-5.9,0.4-13.8,1-18.9,1.9
		c8.9,1.8,27.9,2.8,44.6,2.6l0.1,8C76,80.1,74.7,80.1,72.6,80.1z"/>
</g>
</svg>
