<?xml version="1.0" encoding="utf-8"?>
<!-- Generator: Adobe Illustrator 25.0.1, SVG Export Plug-In . SVG Version: 6.00 Build 0)  -->
<svg version="1.1" id="Layer_1" xmlns="http://www.w3.org/2000/svg" xmlns:xlink="http://www.w3.org/1999/xlink" x="0px" y="0px"
	 viewBox="0 0 100 100" style="enable-background:new 0 0 100 100;" xml:space="preserve">
<path d="M50,18c-17.7,0-32,14.3-32,32s14.3,32,32,32s32-14.3,32-32S67.7,18,50,18z M50,26c9.4,0,17.9,5.5,21.8,14
	c-5.8-2.7-14-4-21.8-4s-16,1.3-21.8,4C32.1,31.5,40.6,26,50,26z M72,50c-0.3,1.7-8.3,6-22,6s-21.7-4.2-22-6c0.3-1.8,8.3-6,22-6
	S71.7,48.3,72,50z M50,74c-9.4,0-17.9-5.5-21.8-14c5.8,2.7,14,4,21.8,4s16-1.3,21.8-4C67.9,68.5,59.4,74,50,74z"/>
</svg>
