<svg xmlns="http://www.w3.org/2000/svg" xmlns:xlink="http://www.w3.org/1999/xlink" viewBox="0 0 56 70" version="1.1" x="0px" y="0px"><title>3D GUI - Solid - 018 - Sphere wire</title><desc>Created with Sketch.</desc><g stroke="none" stroke-width="1" fill="none" fill-rule="evenodd"><g fill-rule="nonzero" fill="#000000"><path d="M29,55.97461 L29,51.98114 C29.04431,51.97998 29.0918,51.98114 29.13574,51.97998 C31.78119,51.93774 34.41052,51.77905 36.97857,51.52039 C36.95873,51.59699 36.9428,51.67609 36.92284,51.75245 C36.63079,52.85212 36.32775,53.85627 36.00969,54.82661 C33.7316663,55.5067362 31.3759687,55.8925365 29,55.97461 L29,55.97461 Z M19.99023,54.82661 C19.67218,53.8564 19.36932,52.85286 19.07812,51.75831 C19.06536,51.70912 19.05383,51.65443 19.04112,51.60505 C21.68126,51.84577 24.348,51.97736 27.00004,51.99281 L27.00004,55.97462 C24.6240305,55.8925454 22.2682926,55.5067383 19.99023,54.8266 L19.99023,54.82661 Z M5.10278,36.32172 C5.10693,36.4115 5.10571,36.51154 5.11132,36.59766 C5.17012218,38.1893912 5.32372778,39.7762039 5.57132,41.34966 C5.80793823,42.9010606 6.12969403,44.4382748 6.53513,45.95434 C3.78983121,42.6821348 1.8314686,38.8239601 0.81061,34.67645 C1.98047,35.17578 3.17609,35.65686 4.41504,36.09228 C4.64447,36.17365 4.87225,36.24384 5.10278,36.32172 Z M46.76807,47.9632 C44.37134,48.48993 41.95844,48.90613 39.56818,49.21283 C39.99457,47.18683 40.32886,45.13562 40.55274,43.09961 C40.72754,41.64746 40.84083,40.30127 40.9043,38.89697 C40.90906,38.80591 40.9113,38.72027 40.91577,38.62951 C43.6113853,38.1254981 46.2727856,37.4531418 48.88434,36.61639 C48.8265474,38.101336 48.6822393,39.5816503 48.45215,41.0498 C48.0933467,43.3989434 47.529841,45.7122181 46.76807,47.9632 L46.76807,47.9632 Z M9.30274,48.16034 C8.49963909,45.8473177 7.9118567,43.4650727 7.54688,41.04395 C7.33890566,39.6959517 7.20321499,38.3377898 7.14039,36.97529 C8.97553,37.5334 10.90357,38.02369 12.90039,38.43019 C13.62726,38.57832 14.35998,38.70381 15.09387,38.8304 C15.09649,38.88008 15.09747,38.93623 15.10058,38.9844 C15.15917,40.30129 15.27246,41.64749 15.44628,43.09182 C15.68747,45.23391 16.03057,47.32247 16.45702,49.31612 C16.0244,49.2632 15.5905,49.21572 15.15722,49.15773 C13.19373,48.90741 11.23517,48.561 9.30273,48.16034 L9.30274,48.16034 Z M39,35.35986 C39,35.88678 38.98151,36.41497 38.96735,36.94256 C35.671067,37.4862341 32.3401179,37.793438 29,37.86182 L29,23.85582 C31.9574887,23.7854874 34.9039513,23.468491 37.80872,22.90813 C38.6041883,27.0109023 39.0031192,31.1806854 39,35.35986 Z M29,1.87958 C30.317069,3.68096069 31.4953479,5.57982067 32.52466,7.55976 C31.3559942,7.72185837 30.1793629,7.82014744 29,7.85419 L29,1.87958 Z M27,7.86182 C25.8149528,7.83614533 24.6321188,7.74727239 23.45654,7.59558 C24.4903739,5.60277077 25.6749757,3.69187464 27,1.87958 L27,7.86182 Z M29,21.85608 L29,9.85408 C30.4983285,9.81192552 31.9921901,9.67009206 33.47168,9.42952 C34.4429558,11.4944755 35.2806163,13.6196756 35.97949,15.792 C36.53637,17.48713 36.99078,19.21369 37.38135,20.95649 C34.6170158,21.4860397 31.813749,21.7869209 29,21.85608 Z M34.58765,7.18866 C33.6876314,5.41742713 32.6769023,3.70466385 31.56147,2.06055 C32.03333,2.36055 32.5019,2.6717 32.96485,2.99805 C34.4600097,4.05315126 35.8704117,5.22350555 37.18317,6.49842 C36.331687,6.77719987 35.4651327,7.00764713 34.58765,7.18866 L34.58765,7.18866 Z M21.3863,7.23828 C21.10999,7.18146 20.82801,7.12891 20.55958,7.06689 C19.92115,6.91644 19.31928,6.74798 18.7447,6.56589 C20.0769046,5.26298058 21.5120387,4.06965737 23.03614,2.99753 C23.49866,2.67136 23.96687,2.36053 24.43842,2.06053 C23.3122859,3.71998484 22.2928509,5.4493933 21.38629,7.23828 L21.3863,7.23828 Z M22.5083,9.47253 C23.9955819,9.6989259 25.4959437,9.82894032 27,9.86176 L27,21.86066 C24.1802433,21.8323288 21.3676831,21.5703859 18.59119,21.07752 C18.9781828,19.2913191 19.4555633,17.5259059 20.02149,15.78809 C20.7156094,13.63228 21.5462248,11.52283 22.5083,9.47253 L22.5083,9.47253 Z M27,23.86066 L27,37.87122 C23.6663683,37.8547556 20.3380542,37.6030537 17.03986,37.11799 C17.02179,36.53278 17,35.94812 17,35.35986 C16.9980266,31.2238994 17.389706,27.0971387 18.16974,23.0354 C21.0849702,23.5564415 24.0387067,23.8324924 27,23.86066 Z M18.57019,49.55292 C18.0680878,47.3447517 17.6886404,45.1104751 17.43359,42.86035 C17.27636,41.55591 17.17541,40.34497 17.11517,39.14758 C20.3899332,39.6122791 23.6924746,39.8540487 27,39.87122 L27,49.9928 C24.1889,49.97614 21.36053,49.82782 18.57019,49.55292 Z M29,39.86334 C32.3150788,39.7958977 35.6215733,39.5001542 38.896,38.97821 C38.83838,40.21857 38.73169,41.48871 38.56543,42.87061 C38.3167052,45.082312 37.9480793,47.2788783 37.46118,49.45061 C34.7323,49.74736 31.92975,49.93499 29.09277,49.98046 L29,49.98248 L29,39.86334 Z M40.9751,36.58034 C40.98236,36.17385 41,35.77022 41,35.35988 C41.0036294,31.0391398 40.5898205,26.7281545 39.76434,22.487 C41.9916506,21.965653 44.1764437,21.276971 46.30011,20.42682 C48.0070112,24.9246615 48.8949396,29.6917449 48.92188,34.5025 C46.3208247,35.3667374 43.6662902,36.0608103 40.9751,36.58032 L40.9751,36.58034 Z M39.33618,20.53638 C38.93658,18.74213 38.46197,16.94165 37.88086,15.17188 C37.207334,13.0839253 36.4115867,11.0373916 35.49774,9.04288 C36.5905819,8.7945126 37.6650712,8.47136525 38.71362,8.07572 C41.5646193,11.1678305 43.8743935,14.7180961 45.546,18.57751 C43.5281197,19.3852896 41.4523203,20.0400946 39.33618,20.53638 Z M39.21545,5.70776 C37.6504757,4.1083317 35.9437464,2.65404852 34.11621,1.36276 C33.6411767,1.0278 33.1610133,0.706166667 32.67572,0.39786 C36.0155275,0.961963295 39.2241219,2.13169307 42.14337,3.8494 C41.2673342,4.61381531 40.2800557,5.24044405 39.21545,5.70776 L39.21545,5.70776 Z M21.88574,1.36182 C20.0212025,2.67584724 18.2829949,4.16053851 16.6936,5.79669 L16.5664,5.74069 C15.527112,5.28371862 14.5598459,4.67795619 13.695,3.94244 C16.6571545,2.17371458 19.9226101,0.971710014 23.32458,0.39782 C22.8403933,0.706726667 22.36078,1.02806 21.88574,1.36182 Z M17.21716,8.14331 C18.1611167,8.49168634 19.1253294,8.78250334 20.10449,9.01416 C20.22662,9.04242 20.35614,9.06482 20.47937,9.09198 C19.5760937,11.0688416 18.7886683,13.096612 18.12109,15.165 C17.5313549,16.9726588 17.0351537,18.809504 16.63446,20.66823 C16.18158,20.56723 15.72198,20.48287 15.27446,20.3691 C13.602339,19.9546333 11.9578387,19.4357729 10.35063,18.81557 C10.37163,18.76857 10.38756,18.72257 10.40922,18.67525 C12.0666917,14.8049105 14.3686546,11.2437546 17.21716,8.14331 L17.21716,8.14331 Z M9.6109,20.67389 C11.3003712,21.326774 13.0291771,21.8729122 14.78711,22.30908 C15.25604,22.42828 15.73755,22.51672 16.21211,22.62243 C15.4035456,26.8199775 14.9976667,31.0851464 15,35.35986 C15,35.83123 15.00616,36.30386 15.01758,36.78386 C14.44458,36.68132 13.8681,36.58605 13.29883,36.4702 C11.1952049,36.0402997 9.11610036,35.4981007 7.07044,34.84593 C7.06055423,30.0077954 7.92107761,25.2073373 9.6109,20.67389 L9.6109,20.67389 Z M14.89746,51.14111 C15.57159,51.23111 16.25104,51.30969 16.9314,51.38855 C17.0024,51.68155 17.06867,51.9776 17.14356,52.26709 C17.3042,52.86987 17.46784,53.4422 17.63428,54.00262 C15.4713646,53.1373982 13.4249881,52.0054061 11.54267,50.63293 C12.65881,50.82465 13.77905,50.99835 14.89746,51.14111 L14.89746,51.14111 Z M38.85746,52.2622 C38.94169,51.93908 39.01603,51.61279 39.09361,51.28753 C40.97349,51.06359 42.869,50.7727 44.76341,50.41363 C42.7974774,51.8854251 40.646424,53.0921328 38.36564,54.00268 C38.53235,53.44128 38.69629,52.86755 38.85742,52.26221 L38.85746,52.2622 Z M50.42773,41.35645 C50.6753676,39.7836496 50.8292858,38.1975185 50.88867,36.60645 C50.89867,36.38752 50.90234,36.15632 50.90875,35.93345 C52.42029,35.38999 53.89428,34.79704 55.31042,34.1533 C54.3298795,38.5000452 52.3233118,42.5490083 49.45837,45.96189 C49.8650682,44.4455298 50.1886699,42.9080949 50.42773,41.35645 L50.42773,41.35645 Z M55.74353,31.73481 C54.20197,32.48597 52.58337,33.17988 50.90613,33.8064 C50.8049902,28.9573382 49.8686097,24.1620116 48.13813,19.63111 C50.0273673,18.7671775 51.8363892,17.7376432 53.544,16.55457 C55.6884637,21.3076061 56.4507479,26.5685712 55.74353,31.7348 L55.74353,31.73481 Z M52.65063,14.73273 C50.9920073,15.9094333 49.2278649,16.9298331 47.38085,17.78083 C45.7114828,13.9296736 43.438848,10.3692659 40.6485,7.23364 C41.8421567,6.65648969 42.9316354,5.88504061 43.87244,4.9508 C47.5280438,7.47461536 50.5357749,10.8262648 52.65063,14.73273 L52.65063,14.73273 Z M11.97095,5.06226 C12.9404782,5.98802073 14.0537258,6.75042068 15.26734,7.31977 C12.4899017,10.454893 10.2325499,14.0146479 8.58106,17.86377 C8.55353,17.92389 8.53168,17.98596 8.50471,18.04651 C6.63593991,17.2317528 4.84797113,16.242979 3.16444,15.09326 C5.25457654,11.0927993 8.27473974,7.65270134 11.97095,5.06226 L11.97095,5.06226 Z M2.29169,16.91754 C4.02212089,18.0756769 5.85315566,19.0759185 7.76269,19.90619 C6.0500813,24.4827481 5.14402324,29.321616 5.08478,34.20776 L5.08106,34.20654 C3.42682,33.62531 1.8382,32.97412 0.32739,32.282 C-0.475481474,27.0776941 0.205332828,21.7524667 2.29169,16.91754 L2.29169,16.91754 Z"/></g></g><text x="0" y="71" fill="#000000" font-size="5px" font-weight="bold" font-family="'Helvetica Neue', Helvetica, Arial-Unicode, Arial, Sans-serif">Created by Creaticca Creative Agency</text><text x="0" y="76" fill="#000000" font-size="5px" font-weight="bold" font-family="'Helvetica Neue', Helvetica, Arial-Unicode, Arial, Sans-serif">from the Noun Project</text></svg>