<?xml version="1.0" encoding="UTF-8" standalone="no"?>
<!-- Generator: Adobe Illustrator 25.0.1, SVG Export Plug-In . SVG Version: 6.00 Build 0)  -->

<svg
   xmlns:dc="http://purl.org/dc/elements/1.1/"
   xmlns:cc="http://creativecommons.org/ns#"
   xmlns:rdf="http://www.w3.org/1999/02/22-rdf-syntax-ns#"
   xmlns:svg="http://www.w3.org/2000/svg"
   xmlns="http://www.w3.org/2000/svg"
   xmlns:sodipodi="http://sodipodi.sourceforge.net/DTD/sodipodi-0.dtd"
   xmlns:inkscape="http://www.inkscape.org/namespaces/inkscape"
   version="1.1"
   id="Layer_1"
   x="0px"
   y="0px"
   viewBox="0 0 100 100"
   style="enable-background:new 0 0 100 100;"
   xml:space="preserve"
   sodipodi:docname="turn_table_path.svg"
   inkscape:version="0.92.3 (2405546, 2018-03-11)"><metadata
   id="metadata9"><rdf:RDF><cc:Work
       rdf:about=""><dc:format>image/svg+xml</dc:format><dc:type
         rdf:resource="http://purl.org/dc/dcmitype/StillImage" /><dc:title></dc:title></cc:Work></rdf:RDF></metadata><defs
   id="defs7"><marker
     inkscape:isstock="true"
     style="overflow:visible;"
     id="marker8968"
     refX="0.0"
     refY="0.0"
     orient="auto"
     inkscape:stockid="Arrow2Mend"><path
       transform="scale(0.6) rotate(180) translate(0,0)"
       d="M 8.7185878,4.0337352 L -2.2072895,0.016013256 L 8.7185884,-4.0017078 C 6.9730900,-1.6296469 6.9831476,1.6157441 8.7185878,4.0337352 z "
       style="fill-rule:evenodd;stroke-width:0.625;stroke-linejoin:round;stroke:#000000;stroke-opacity:1;fill:#000000;fill-opacity:1"
       id="path8966" /></marker><marker
     inkscape:stockid="Arrow2Lend"
     orient="auto"
     refY="0.0"
     refX="0.0"
     id="marker8401"
     style="overflow:visible;"
     inkscape:isstock="true"><path
       id="path8399"
       style="fill-rule:evenodd;stroke-width:0.625;stroke-linejoin:round;stroke:#000000;stroke-opacity:1;fill:#000000;fill-opacity:1"
       d="M 8.7185878,4.0337352 L -2.2072895,0.016013256 L 8.7185884,-4.0017078 C 6.9730900,-1.6296469 6.9831476,1.6157441 8.7185878,4.0337352 z "
       transform="scale(1.1) rotate(180) translate(1,0)" /></marker><marker
     inkscape:stockid="DiamondL"
     orient="auto"
     refY="0.0"
     refX="0.0"
     id="DiamondL"
     style="overflow:visible"
     inkscape:isstock="true"><path
       id="path4597"
       d="M 0,-7.0710768 L -7.0710894,0 L 0,7.0710589 L 7.0710462,0 L 0,-7.0710768 z "
       style="fill-rule:evenodd;stroke:#000000;stroke-width:1pt;stroke-opacity:1;fill:#000000;fill-opacity:1"
       transform="scale(0.8)" /></marker><marker
     inkscape:stockid="DotL"
     orient="auto"
     refY="0.0"
     refX="0.0"
     id="DotL"
     style="overflow:visible"
     inkscape:isstock="true"><path
       id="path4579"
       d="M -2.5,-1.0 C -2.5,1.7600000 -4.7400000,4.0 -7.5,4.0 C -10.260000,4.0 -12.5,1.7600000 -12.5,-1.0 C -12.5,-3.7600000 -10.260000,-6.0 -7.5,-6.0 C -4.7400000,-6.0 -2.5,-3.7600000 -2.5,-1.0 z "
       style="fill-rule:evenodd;stroke:#000000;stroke-width:1pt;stroke-opacity:1;fill:#000000;fill-opacity:1"
       transform="scale(0.8) translate(7.4, 1)" /></marker><marker
     inkscape:isstock="true"
     style="overflow:visible;"
     id="marker7239"
     refX="0.0"
     refY="0.0"
     orient="auto"
     inkscape:stockid="Arrow2Mend"><path
       transform="scale(0.6) rotate(180) translate(0,0)"
       d="M 8.7185878,4.0337352 L -2.2072895,0.016013256 L 8.7185884,-4.0017078 C 6.9730900,-1.6296469 6.9831476,1.6157441 8.7185878,4.0337352 z "
       style="fill-rule:evenodd;stroke-width:0.625;stroke-linejoin:round;stroke:#000000;stroke-opacity:1;fill:#000000;fill-opacity:1"
       id="path7237" /></marker><marker
     inkscape:stockid="StopS"
     orient="auto"
     refY="0.0"
     refX="0.0"
     id="StopS"
     style="overflow:visible"
     inkscape:isstock="true"><path
       id="path4693"
       d="M 0.0,5.65 L 0.0,-5.65"
       style="fill:none;fill-opacity:0.75;fill-rule:evenodd;stroke:#000000;stroke-width:1pt;stroke-opacity:1"
       transform="scale(0.2)" /></marker><marker
     style="overflow:visible"
     id="DistanceStart"
     refX="0.0"
     refY="0.0"
     orient="auto"
     inkscape:stockid="DistanceStart"
     inkscape:isstock="true"><g
       id="g2300"
       style="stroke:#000000;stroke-opacity:1;fill:#000000;fill-opacity:1"><path
         style="fill:#000000;stroke:#000000;stroke-width:1.15;stroke-linecap:square;stroke-opacity:1;fill-opacity:1"
         d="M 0,0 L 2,0"
         id="path2306" /><path
         style="fill:#000000;fill-rule:evenodd;stroke:#000000;stroke-opacity:1;fill-opacity:1"
         d="M 0,0 L 13,4 L 9,0 13,-4 L 0,0 z "
         id="path2302" /><path
         style="fill:#000000;stroke:#000000;stroke-width:1;stroke-linecap:square;stroke-opacity:1;fill-opacity:1"
         d="M 0,-4 L 0,40"
         id="path2304" /></g></marker><marker
     inkscape:stockid="Arrow2Send"
     orient="auto"
     refY="0.0"
     refX="0.0"
     id="Arrow2Send"
     style="overflow:visible;"
     inkscape:isstock="true"><path
       id="path4551"
       style="fill-rule:evenodd;stroke-width:0.625;stroke-linejoin:round;stroke:#000000;stroke-opacity:1;fill:#000000;fill-opacity:1"
       d="M 8.7185878,4.0337352 L -2.2072895,0.016013256 L 8.7185884,-4.0017078 C 6.9730900,-1.6296469 6.9831476,1.6157441 8.7185878,4.0337352 z "
       transform="scale(0.3) rotate(180) translate(-2.3,0)" /></marker><marker
     inkscape:stockid="Arrow1Lend"
     orient="auto"
     refY="0.0"
     refX="0.0"
     id="Arrow1Lend"
     style="overflow:visible;"
     inkscape:isstock="true"><path
       id="path4521"
       d="M 0.0,0.0 L 5.0,-5.0 L -12.5,0.0 L 5.0,5.0 L 0.0,0.0 z "
       style="fill-rule:evenodd;stroke:#000000;stroke-width:1pt;stroke-opacity:1;fill:#000000;fill-opacity:1"
       transform="scale(0.8) rotate(180) translate(12.5,0)" /></marker><marker
     inkscape:stockid="Arrow1Sstart"
     orient="auto"
     refY="0.0"
     refX="0.0"
     id="Arrow1Sstart"
     style="overflow:visible"
     inkscape:isstock="true"><path
       id="path4530"
       d="M 0.0,0.0 L 5.0,-5.0 L -12.5,0.0 L 5.0,5.0 L 0.0,0.0 z "
       style="fill-rule:evenodd;stroke:#000000;stroke-width:1pt;stroke-opacity:1;fill:#000000;fill-opacity:1"
       transform="scale(0.2) translate(6,0)" /></marker><marker
     inkscape:stockid="Arrow1Mstart"
     orient="auto"
     refY="0.0"
     refX="0.0"
     id="marker6256"
     style="overflow:visible"
     inkscape:isstock="true"><path
       id="path6254"
       d="M 0.0,0.0 L 5.0,-5.0 L -12.5,0.0 L 5.0,5.0 L 0.0,0.0 z "
       style="fill-rule:evenodd;stroke:#000000;stroke-width:1pt;stroke-opacity:1;fill:#000000;fill-opacity:1"
       transform="scale(0.4) translate(10,0)" /></marker><marker
     inkscape:isstock="true"
     style="overflow:visible"
     id="marker6156"
     refX="0.0"
     refY="0.0"
     orient="auto"
     inkscape:stockid="Arrow2Lstart"><path
       transform="scale(1.1) translate(1,0)"
       d="M 8.7185878,4.0337352 L -2.2072895,0.016013256 L 8.7185884,-4.0017078 C 6.9730900,-1.6296469 6.9831476,1.6157441 8.7185878,4.0337352 z "
       style="fill-rule:evenodd;stroke-width:0.625;stroke-linejoin:round;stroke:#000000;stroke-opacity:1;fill:#000000;fill-opacity:1"
       id="path6154" /></marker><marker
     inkscape:stockid="EmptyTriangleInL"
     orient="auto"
     refY="0.0"
     refX="0.0"
     id="EmptyTriangleInL"
     style="overflow:visible"
     inkscape:isstock="true"><path
       id="path4669"
       d="M 5.77,0.0 L -2.88,5.0 L -2.88,-5.0 L 5.77,0.0 z "
       style="fill-rule:evenodd;fill:#ffffff;stroke:#000000;stroke-width:1pt;stroke-opacity:1"
       transform="scale(-0.8) translate(-6,0)" /></marker><marker
     inkscape:stockid="Tail"
     orient="auto"
     refY="0.0"
     refX="0.0"
     id="Tail"
     style="overflow:visible"
     inkscape:isstock="true"><g
       id="g4566"
       transform="scale(-1.2)"
       style="stroke:#040404;stroke-opacity:1;fill:#040404;fill-opacity:1"><path
         id="path4554"
         d="M -3.8048674,-3.9585227 L 0.54352094,0"
         style="fill:#040404;fill-rule:evenodd;stroke:#040404;stroke-width:0.8;stroke-linecap:round;stroke-opacity:1;fill-opacity:1" /><path
         id="path4556"
         d="M -1.2866832,-3.9585227 L 3.0617053,0"
         style="fill:#040404;fill-rule:evenodd;stroke:#040404;stroke-width:0.8;stroke-linecap:round;stroke-opacity:1;fill-opacity:1" /><path
         id="path4558"
         d="M 1.3053582,-3.9585227 L 5.6537466,0"
         style="fill:#040404;fill-rule:evenodd;stroke:#040404;stroke-width:0.8;stroke-linecap:round;stroke-opacity:1;fill-opacity:1" /><path
         id="path4560"
         d="M -3.8048674,4.1775838 L 0.54352094,0.21974226"
         style="fill:#040404;fill-rule:evenodd;stroke:#040404;stroke-width:0.8;stroke-linecap:round;stroke-opacity:1;fill-opacity:1" /><path
         id="path4562"
         d="M -1.2866832,4.1775838 L 3.0617053,0.21974226"
         style="fill:#040404;fill-rule:evenodd;stroke:#040404;stroke-width:0.8;stroke-linecap:round;stroke-opacity:1;fill-opacity:1" /><path
         id="path4564"
         d="M 1.3053582,4.1775838 L 5.6537466,0.21974226"
         style="fill:#040404;fill-rule:evenodd;stroke:#040404;stroke-width:0.8;stroke-linecap:round;stroke-opacity:1;fill-opacity:1" /></g></marker><marker
     inkscape:stockid="Arrow1Mstart"
     orient="auto"
     refY="0.0"
     refX="0.0"
     id="Arrow1Mstart"
     style="overflow:visible"
     inkscape:isstock="true"><path
       id="path4524"
       d="M 0.0,0.0 L 5.0,-5.0 L -12.5,0.0 L 5.0,5.0 L 0.0,0.0 z "
       style="fill-rule:evenodd;stroke:#000000;stroke-width:1pt;stroke-opacity:1;fill:#000000;fill-opacity:1"
       transform="scale(0.4) translate(10,0)" /></marker><marker
     inkscape:stockid="Arrow2Sstart"
     orient="auto"
     refY="0.0"
     refX="0.0"
     id="Arrow2Sstart"
     style="overflow:visible"
     inkscape:isstock="true"><path
       id="path4548"
       style="fill-rule:evenodd;stroke-width:0.625;stroke-linejoin:round;stroke:#040404;stroke-opacity:1;fill:#040404;fill-opacity:1"
       d="M 8.7185878,4.0337352 L -2.2072895,0.016013256 L 8.7185884,-4.0017078 C 6.9730900,-1.6296469 6.9831476,1.6157441 8.7185878,4.0337352 z "
       transform="scale(0.3) translate(-2.3,0)" /></marker><marker
     inkscape:stockid="Arrow2Lstart"
     orient="auto"
     refY="0.0"
     refX="0.0"
     id="marker5148"
     style="overflow:visible"
     inkscape:isstock="true"><path
       id="path5146"
       style="fill-rule:evenodd;stroke-width:0.625;stroke-linejoin:round;stroke:#040404;stroke-opacity:1;fill:#040404;fill-opacity:1"
       d="M 8.7185878,4.0337352 L -2.2072895,0.016013256 L 8.7185884,-4.0017078 C 6.9730900,-1.6296469 6.9831476,1.6157441 8.7185878,4.0337352 z "
       transform="scale(1.1) translate(1,0)" /></marker><marker
     inkscape:stockid="Arrow2Lend"
     orient="auto"
     refY="0.0"
     refX="0.0"
     id="Arrow2Lend"
     style="overflow:visible;"
     inkscape:isstock="true"><path
       id="path4539"
       style="fill-rule:evenodd;stroke-width:0.625;stroke-linejoin:round;stroke:#040404;stroke-opacity:1;fill:#040404;fill-opacity:1"
       d="M 8.7185878,4.0337352 L -2.2072895,0.016013256 L 8.7185884,-4.0017078 C 6.9730900,-1.6296469 6.9831476,1.6157441 8.7185878,4.0337352 z "
       transform="scale(1.1) rotate(180) translate(1,0)" /></marker><marker
     inkscape:stockid="Arrow2Lstart"
     orient="auto"
     refY="0.0"
     refX="0.0"
     id="Arrow2Lstart"
     style="overflow:visible"
     inkscape:isstock="true"><path
       id="path4536"
       style="fill-rule:evenodd;stroke-width:0.625;stroke-linejoin:round;stroke:#040404;stroke-opacity:1;fill:#040404;fill-opacity:1"
       d="M 8.7185878,4.0337352 L -2.2072895,0.016013256 L 8.7185884,-4.0017078 C 6.9730900,-1.6296469 6.9831476,1.6157441 8.7185878,4.0337352 z "
       transform="scale(1.1) translate(1,0)" /></marker><marker
     inkscape:stockid="Arrow1Lstart"
     orient="auto"
     refY="0.0"
     refX="0.0"
     id="Arrow1Lstart"
     style="overflow:visible"
     inkscape:isstock="true"><path
       id="path4518"
       d="M 0.0,0.0 L 5.0,-5.0 L -12.5,0.0 L 5.0,5.0 L 0.0,0.0 z "
       style="fill-rule:evenodd;stroke:#040404;stroke-width:1pt;stroke-opacity:1;fill:#040404;fill-opacity:1"
       transform="scale(0.8) translate(12.5,0)" /></marker></defs><sodipodi:namedview
   pagecolor="#ffffff"
   bordercolor="#666666"
   borderopacity="1"
   objecttolerance="10"
   gridtolerance="10"
   guidetolerance="10"
   inkscape:pageopacity="0"
   inkscape:pageshadow="2"
   inkscape:window-width="2560"
   inkscape:window-height="1377"
   id="namedview5"
   showgrid="false"
   inkscape:zoom="6.9945539"
   inkscape:cx="9.2836608"
   inkscape:cy="25.973349"
   inkscape:window-x="2552"
   inkscape:window-y="-8"
   inkscape:window-maximized="1"
   inkscape:current-layer="Layer_1" />

<path
   sodipodi:type="spiral"
   style="fill:none;fill-rule:evenodd;stroke:#000000;stroke-width:2.24988022;stroke-linecap:round;stroke-miterlimit:0;stroke-dasharray:none;stroke-dashoffset:0;stroke-linejoin:round;paint-order:normal"
   id="path6146"
   sodipodi:cx="-106.6544"
   sodipodi:cy="10.358829"
   sodipodi:expansion="1"
   sodipodi:revolution="1.8953104"
   sodipodi:radius="9.1244297"
   sodipodi:argument="-18.225855"
   sodipodi:t0="0"
   d="m -106.6544,10.358829 c 0.58779,0.422924 -0.2801,1.000989 -0.70293,0.976951 -1.14585,-0.06514 -1.55465,-1.452532 -1.25098,-2.3828063 0.54321,-1.6640426 2.57452,-2.1799537 4.06269,-1.5249993 2.18395,0.9611719 2.82066,3.7105866 1.79902,5.7425636 -1.36168,2.708306 -4.85151,3.467749 -7.42244,2.073047 -3.23525,-1.755089 -4.1181,-5.9947176 -2.34707,-9.1023211 2.14495,-3.7637241 7.1392,-4.7703228 10.7822,-2.621095 2.334821,1.3774535 3.881076,3.8458212 4.198637,6.5277311"
   transform="matrix(-3.0584715,2.8263403,-3.3297454,-3.0770251,-244.2964,378.54217)" /><ellipse
   style="opacity:1;fill:#000000;fill-opacity:1;fill-rule:nonzero;stroke:#040404;stroke-width:2.07435131;stroke-linecap:round;stroke-linejoin:round;stroke-miterlimit:1.39999998;stroke-dasharray:none;stroke-dashoffset:0;stroke-opacity:1;paint-order:markers stroke fill"
   id="path8946"
   cx="3.3012314"
   cy="-68.600647"
   rx="13.763922"
   ry="14.497998"
   transform="matrix(-0.73442803,0.67868657,-0.73442803,-0.67868657,0,0)" /></svg>